<svg xmlns="http://www.w3.org/2000/svg" xmlns:xlink="http://www.w3.org/1999/xlink" viewBox="0 0 155.63396 179.71062">
  <defs>
    <radialGradient xlink:href="#a" id="f" gradientUnits="userSpaceOnUse" gradientTransform="matrix(.0142 -1.5297 1.71535 .01591 -917.04586 961.47515)" cx="414.02301" cy="687.40204" fx="414.02301" fy="687.40204" r="86.830666"/>
    <linearGradient id="a">
      <stop offset="0" stop-color="#9558b2"/>
      <stop offset="1" stop-color="#fff" stop-opacity="0"/>
    </linearGradient>
    <radialGradient xlink:href="#b" id="e" gradientUnits="userSpaceOnUse" gradientTransform="matrix(1.72341 -.00186 .00163 1.51192 -882.37544 -611.6584)" cx="580.789" cy="628.65375" fx="580.789" fy="628.65375" r="86.830666"/>
    <linearGradient id="b">
      <stop offset="0" stop-color="#cb3c33"/>
      <stop offset="1" stop-color="#fff" stop-opacity="0"/>
    </linearGradient>
    <radialGradient xlink:href="#c" id="d" gradientUnits="userSpaceOnUse" gradientTransform="matrix(-1.26566 1.227 -1.1253 -1.16075 1553.0139 345.19765)" cx="499.3504" cy="645.45337" fx="499.3504" fy="645.45337" r="86.830666"/>
    <linearGradient id="c">
      <stop offset="0" stop-color="#389826"/>
      <stop offset="1" stop-color="#fff" stop-opacity="0"/>
    </linearGradient>
  </defs>
  <g transform="translate(-116.46873 -205.36405)">
    <path d="M271.64402 339.88221l-77.35831 44.66284-77.35832-44.66284v-89.3257l77.35832-44.66284 77.35831 44.66285z" fill="#fff"/>
    <path d="M269.29811 338.36445l-75.07265 43.34321-75.07264-43.34321v-86.68642l75.07264-43.34321 75.07265 43.34321z" fill="none" stroke="url(#d)" stroke-width="4.45108843"/>
    <path d="M269.29811 338.36445l-75.07265 43.34321-75.07264-43.34321v-86.68642l75.07264-43.34321 75.07265 43.34321z" fill="none" stroke="url(#e)" stroke-width="4.45108843"/>
    <path d="M269.29811 338.36445l-75.07265 43.34321-75.07264-43.34321v-86.68642l75.07264-43.34321 75.07265 43.34321z" fill="none" stroke="url(#f)" stroke-width="4.45108843"/>
    <path d="M271.64402 339.88221l-77.35831 44.66284-77.35832-44.66284v-89.3257l77.35832-44.66284 77.35831 44.66285z" fill="none" stroke="#1a1a1a" stroke-width=".91732138"/>
    <path style="line-height:125%;-inkscape-font-specification:'Comfortaa, Normal';text-align:start" d="M182.59537 240.37016q1.4163 0 2.54934.61373 1.15665.59012 1.81759 1.65235.68454 1.06222.68454 2.3841 0 1.25107-.68454 2.24248-.66094.99141-1.79398 1.53432 1.62874.4485 2.57294 1.62875.9442 1.15664.9442 2.92702 0 1.58153-.73175 2.8326-.73176 1.22746-2.03003 1.93561-1.27467.68454-2.92702.68454h-6.01928q-.4721 0-.75536-.23605-.28326-.25965-.28326-.68454v-16.59432q0-.40128.25966-.66094.25965-.25965.66094-.25965h5.73601zm0 7.69523q1.43991 0 2.3369-.80257.92059-.82618.92059-2.24248 0-1.36909-.89699-2.12445t-2.3605-.75536h-4.81542v5.92486h4.81542zm.40129 8.9699q1.72316 0 2.78539-.99141 1.08583-1.01502 1.08583-2.69097 0-1.60514-1.08583-2.54934-1.06223-.96781-2.78539-.96781h-5.21671v7.19953h5.21671zM192.44714 246.81432q0-.40128.25966-.66094.25965-.25965.66094-.25965.40128 0 .63733.25965.25966.25966.25966.66094v11.07075q0 .40128-.25966.66094-.23605.25965-.63733.25965-.40129 0-.66094-.25965-.25966-.25966-.25966-.66094v-11.07075zm.9206-5.94846q.51931 0 .89699.35408.37768.35407.37768.92059 0 .54292-.37768.9206t-.9206.37768q-.54291 0-.92059-.37768-.35408-.37768-.35408-.9206 0-.56652.37768-.92059.37768-.35408.9206-.35408zM204.77043 245.7757q1.86479 0 3.35191.84978 1.48711.84978 2.33689 2.3605.87339 1.51072.87339 3.37552 0 1.86479-.84978 3.37551-.84978 1.48712-2.3605 2.3369-1.48712.84978-3.35191.84978-1.8648 0-3.37552-.84978-1.48711-.84978-2.33689-2.3369-.84978-1.51072-.84978-3.37551 0-1.8648.84978-3.37552.84978-1.51072 2.33689-2.3605 1.51072-.84978 3.37552-.84978zm0 1.65235q-1.34549 0-2.45492.63734-1.08583.63733-1.72317 1.77037-.61373 1.10944-.61373 2.52574 0 1.39269.61373 2.52573.63734 1.10944 1.72317 1.74677 1.10943.63734 2.45492.63734 1.36909 0 2.45492-.63734 1.08583-.63733 1.69956-1.74677.61373-1.13304.61373-2.52573 0-1.4163-.61373-2.52574-.61373-1.13304-1.69956-1.77037-1.08583-.63734-2.45492-.63734zM134.17041 258.64326q1.86479 0 3.28109.82618 1.4163.82617 2.21887 2.14805.16524.25966.16524.56652 0 .4485-.42489.70815-.18884.0944-.42489.0944-.25966 0-.49571-.11802-.21244-.14163-.35407-.37768-1.32188-2.07724-3.98925-2.10085-1.912 0-3.02144.80257-1.10943.80257-1.10943 2.28969 0 2.76178 4.46134 3.35191 2.92702.42489 4.36693 1.79398 1.4399 1.36909 1.4399 3.61156 0 1.65235-.80257 2.85621-.80257 1.20385-2.19526 1.84119-1.3927.61373-3.11586.61373-2.24248 0-3.98925-.9442-1.72316-.96781-2.47852-2.59655-.0944-.16524-.0944-.37768 0-.33047.23605-.54292.25965-.23605.68454-.23605.28326 0 .51931.16524.25966.14163.37768.42489.54292 1.06222 1.79398 1.72316 1.27467.63734 2.95063.63734 1.93561 0 3.11586-.9206 1.18025-.9442 1.18025-2.62015 0-1.48712-1.10944-2.50213-1.08583-1.01502-3.28109-1.29828-2.73818-.33047-4.31972-1.69956-1.55793-1.39269-1.55793-3.39912 0-1.4163.75536-2.47852.77897-1.08583 2.12445-1.65235 1.36909-.59013 3.09226-.59013zM149.39822 264.28486q1.74677 0 3.09225.82617 1.34549.80257 2.07724 2.24248.75536 1.4399.75536 3.28109 0 .37768-.23605.61373-.23605.21245-.61373.21245h-9.53642q.18884 1.93561 1.51072 3.13946 1.32188 1.20386 3.3047 1.20386.84978 0 1.69956-.28326.87339-.30687 1.3927-.75536.30686-.23605.63733-.23605.25966 0 .51931.18884.30687.28326.30687.63733 0 .30687-.25966.54292-.77896.66094-1.98282 1.10943-1.20385.42489-2.31329.42489-1.8884 0-3.37551-.82617-1.48712-.84978-2.3369-2.3369-.82618-1.51072-.82618-3.39912 0-1.912.77897-3.39912.80257-1.51072 2.19527-2.33689 1.4163-.84978 3.21028-.84978zm0 1.62874q-1.79398 0-2.97423 1.10944-1.18025 1.10943-1.43991 2.92702h8.63943q-.18884-1.81759-1.32188-2.92702-1.13304-1.10944-2.90341-1.10944zM170.81459 276.41783q0 .14163-.0236.21244v5.28752q0 .40129-.25966.66094-.23605.25966-.63733.25966-.40129 0-.66094-.25966-.25966-.25965-.25966-.66094v-6.91626q-.82617 1.13304-2.10084 1.79398-1.27467.63733-2.809.63733-1.79398 0-3.25749-.84978-1.4399-.87338-2.28968-2.3605-.82618-1.51072-.82618-3.35191t.84978-3.35191q.87339-1.51072 2.3605-2.3605 1.51072-.87338 3.35191-.87338t3.32831.87338q1.51072.84978 2.3605 2.3605.87338 1.51072.87338 3.35191v5.54718zm-6.56219-.63734q1.8648 0 3.16307-1.18025 1.32188-1.18025 1.55793-3.02144 0-.0708.0236-.11802.0236-.18884.0236-.59013 0-1.39269-.63733-2.50213-.61373-1.13304-1.69956-1.77037-1.08583-.66094-2.43132-.66094-1.34548 0-2.45492.66094-1.08583.63733-1.72316 1.77037-.61373 1.10944-.61373 2.50213 0 1.3927.61373 2.52574.63733 1.10943 1.72316 1.74677 1.10944.63733 2.45492.63733zM185.82921 264.40288q.40129 0 .66094.25966.25966.23605.25966.63733v11.09435q0 .40129-.25966.66094-.25965.25966-.66094.25966-.40128 0-.66094-.25966-.23605-.25965-.23605-.66094v-.80257q-.77896.87339-1.8884 1.36909-1.10943.49571-2.40771.49571-1.67595 0-3.02144-.70815-1.32188-.70815-2.07724-2.05364-.75536-1.36909-.75536-3.25749v-6.1373q0-.37768.25966-.63733.25965-.25966.63733-.25966.40129 0 .66094.25966.25966.25965.25966.63733v6.1373q0 2.10085 1.15664 3.21028 1.18025 1.08583 3.06865 1.08583 1.15665 0 2.07724-.44849.9442-.4485 1.48712-1.22746.54291-.80257.54291-1.77038v-6.98708q0-.40128.23605-.63733.25966-.25966.66094-.25966zM196.4699 264.28486q1.74678 0 3.09226.82617 1.34549.80257 2.07724 2.24248.75536 1.4399.75536 3.28109 0 .37768-.23605.61373-.23605.21245-.61373.21245h-9.53642q.18884 1.93561 1.51072 3.13946 1.32188 1.20386 3.3047 1.20386.84978 0 1.69956-.28326.87339-.30687 1.3927-.75536.30686-.23605.63733-.23605.25966 0 .51931.18884.30687.28326.30687.63733 0 .30687-.25966.54292-.77896.66094-1.98282 1.10943-1.20385.42489-2.31329.42489-1.8884 0-3.37552-.82617-1.48711-.84978-2.33689-2.3369-.82618-1.51072-.82618-3.39912 0-1.912.77897-3.39912.80257-1.51072 2.19526-2.33689 1.4163-.84978 3.21028-.84978zm0 1.62874q-1.79398 0-2.97423 1.10944-1.18025 1.10943-1.4399 2.92702h8.63943q-.18884-1.81759-1.32188-2.92702-1.13304-1.10944-2.90342-1.10944zM211.56014 264.26125q1.67596 0 2.99784.70815 1.34548.70815 2.10084 2.07724.75536 1.34549.75536 3.23389v6.1373q0 .37768-.25965.63733-.25966.25966-.63734.25966-.40128 0-.66094-.25966-.25965-.25965-.25965-.63733v-6.1373q0-2.10085-1.18025-3.18668-1.15665-1.10943-3.04505-1.10943-1.15664 0-2.10084.44849-.9206.4485-1.46351 1.25107-.54292.77896-.54292 1.74677v6.98708q0 .40128-.25965.66094-.23605.23605-.63734.23605-.40128 0-.66094-.23605-.25965-.25966-.25965-.66094v-11.09435q0-.40129.25965-.66094.25966-.25966.66094-.25966.40129 0 .63734.25966.25965.25965.25965.66094v.80257q.77897-.87339 1.8884-1.36909 1.10944-.49571 2.40771-.49571zM226.92183 264.28486q2.95063 0 4.79182 2.26608.18884.21244.18884.4957 0 .37768-.40129.66094-.21244.14163-.44849.14163-.35408 0-.68455-.35407-.70815-.77897-1.55793-1.15665-.84978-.40128-1.8884-.40128-1.29827 0-2.31329.63733-1.01501.61373-1.58153 1.74677-.54292 1.13304-.54292 2.54934 0 1.3927.59013 2.52574.59012 1.10943 1.65235 1.74677 1.06222.63733 2.43131.63733 1.8884 0 3.04505-1.01501.30686-.25966.63733-.25966.28326 0 .51931.18884.33047.28326.33047.63734 0 .30686-.23605.51931-1.69956 1.58153-4.29611 1.58153-1.84119 0-3.3047-.84978-1.46351-.87338-2.31329-2.3605-.82617-1.51072-.82617-3.35191 0-1.8884.80257-3.37551.80257-1.51072 2.21887-2.3605t3.18667-.84978zM240.9598 264.28486q1.74677 0 3.09226.82617 1.34548.80257 2.07724 2.24248.75536 1.4399.75536 3.28109 0 .37768-.23605.61373-.23605.21245-.61373.21245h-9.53642q.18884 1.93561 1.51072 3.13946 1.32188 1.20386 3.3047 1.20386.84978 0 1.69956-.28326.87338-.30687 1.39269-.75536.30687-.23605.63734-.23605.25965 0 .51931.18884.30686.28326.30686.63733 0 .30687-.25965.54292-.77897.66094-1.98282 1.10943-1.20386.42489-2.31329.42489-1.8884 0-3.37552-.82617-1.48711-.84978-2.33689-2.3369-.82618-1.51072-.82618-3.39912 0-1.912.77897-3.39912.80257-1.51072 2.19526-2.33689 1.4163-.84978 3.21028-.84978zm0 1.62874q-1.79398 0-2.97423 1.10944-1.18025 1.10943-1.4399 2.92702h8.63943q-.18884-1.81759-1.32188-2.92702-1.13304-1.10944-2.90342-1.10944zM254.39769 264.28486q1.55793 0 2.71457.54291 1.15665.51931 1.8648 1.46351.18884.30687.18884.54292 0 .40128-.37768.63733-.16524.11803-.4485.11803-.4957 0-.82617-.35408-1.15665-1.32188-3.16307-1.32188-1.29828 0-2.07725.54292-.77896.51931-.77896 1.32188 0 .84978.73175 1.36909.73176.4957 2.59656.80257 2.52573.42489 3.61156 1.39269 1.08583.9442 1.08583 2.3605 0 1.08583-.66094 1.93561-.63733.84978-1.79398 1.32188-1.15664.4721-2.62015.4721-1.46352 0-2.809-.4957-1.34549-.49571-2.17166-1.3927-.23605-.28326-.23605-.54291 0-.40129.37768-.70815.28326-.21245.59012-.21245.40129 0 .68455.33047.56652.66094 1.48711 1.01502.9442.35407 2.07725.35407 1.65235 0 2.47852-.56652.82618-.56652.84978-1.48711 0-.84978-.82617-1.4163-.82618-.56652-2.62016-.84978-2.31329-.37768-3.46994-1.29828-1.13304-.9442-1.13304-2.26608 0-1.72316 1.32188-2.66736 1.34549-.9442 3.35192-.9442z" font-weight="400" font-size="23.60500145" font-family="Comfortaa" letter-spacing="0" word-spacing="0" fill="#1a1a1a"/>
    <ellipse ry="5.9792657" rx="5.9792652" cx="131.871" cy="311.64594" fill="#9558b2"/>
    <circle cx="147.20898" cy="330.84622" r="4.9393539" fill="#4063d8"/>
    <circle cx="142.26991" cy="303.0459" r="4.9393539" fill="#cb3c33"/>
    <ellipse ry="5.9792657" rx="5.9792652" cx="160.98712" cy="327.24612" fill="#9558b2"/>
    <ellipse ry="7.4090815" rx="7.4090805" cx="173.07626" cy="315.14597" fill="#4063d8"/>
    <circle cx="154.87804" cy="301.04587" r="4.5494494" fill="#389826"/>
    <circle cx="215.32071" cy="337.84631" r="4.9393539" fill="#cb3c33"/>
    <ellipse ry="5.5892615" rx="5.5892611" cx="197.51251" cy="296.94583" fill="#9558b2"/>
    <ellipse ry="5.5892615" rx="5.5892611" cx="246.90306" cy="306.84589" fill="#cb3c33"/>
    <ellipse ry="2.4697273" rx="2.4697268" cx="185.55438" cy="321.64612" fill="#4063d8"/>
    <circle cx="229.49287" cy="311.24594" r="3.2496355" fill="#cb3c33"/>
    <circle cx="249.50308" cy="327.84613" r="2.7296298" fill="#4063d8"/>
    <circle cx="253.53311" cy="296.54584" r="3.8995426" fill="#389826"/>
    <circle cx="258.47321" cy="330.54617" r="3.8995426" fill="#9558b2"/>
    <circle cx="193.48347" cy="328.74615" r="3.3795369" fill="#389826"/>
    <ellipse ry="4.2894473" rx="4.2894468" cx="220.90977" cy="305.24591" fill="#4063d8"/>
    <circle cx="203.6216" cy="334.24622" r="3.8995426" fill="#9558b2"/>
    <ellipse ry="5.8492627" rx="5.8492632" cx="228.45287" cy="333.34619" fill="#389826"/>
    <circle cx="239.49298" cy="320.14603" r="6.7591739" fill="#389826"/>
    <circle cx="183.47438" cy="302.34586" r="6.3691692" fill="#cb3c33"/>
    <circle cx="164.62717" cy="306.14594" r="3.3795369" fill="#cb3c33"/>
    <ellipse ry="5.3293581" rx="5.3293576" cx="210.51065" cy="299.24582" fill="#389826"/>
  </g>
</svg>
